<svg xmlns="http://www.w3.org/2000/svg" data-name="Слой 1" viewBox="0 0 128 160" x="0px" y="0px">
<title>ic_failed_folder</title>
<path d="M64.1,83.3C56.28,83.3,49.18,86.7,46,92A2,2,0,1,0,49.43,94c2.47-4.09,8.23-6.73,14.67-6.73,6.07,0,11.69,2.44,14.32,6.21a2,2,0,1,0,3.28-2.28C78.3,86.34,71.55,83.3,64.1,83.3Z"/>
<path d="M48.59,70.41a2,2,0,0,0,2.82-2.82L44.83,61l6.58-6.59a2,2,0,0,0-2.82-2.82L42,58.17l-6.59-6.58a2,2,0,0,0-2.82,2.82L39.17,61l-6.58,6.59a2,2,0,1,0,2.82,2.82L42,63.83Z"/>
<path d="M95.41,51.59a2,2,0,0,0-2.82,0L86,58.17l-6.59-6.58a2,2,0,0,0-2.82,2.82L83.17,61l-6.58,6.59a2,2,0,1,0,2.82,2.82L86,63.83l6.59,6.58a2,2,0,0,0,2.82-2.82L88.83,61l6.58-6.59A2,2,0,0,0,95.41,51.59Z"/>
<path d="M120,24H53a2.73,2.73,0,0,1-3-3V15a6.7,6.7,0,0,0-7-7H7a6.7,6.7,0,0,0-7,7v97.25a8.31,8.31,0,0,0,2.4,5.8,6.44,6.44,0,0,0,4.11,1.89A2,2,0,0,0,7,120H121c4.32,0,7-4.15,7-8V32C128,26.92,125.08,24,120,24Zm4,88c0,1.93-1.21,4-3,4H7.43A2.49,2.49,0,0,0,7,116a2.37,2.37,0,0,1-1.76-.75,4.3,4.3,0,0,1-1.21-3V15a2.73,2.73,0,0,1,3-3H43a2.73,2.73,0,0,1,3,3v6a6.7,6.7,0,0,0,7,7h67c2.88,0,4,1.12,4,4Z"/>
<text x="0" y="143" fill="#000000" font-size="5px" font-weight="bold" font-family="'Helvetica Neue', Helvetica, Arial-Unicode, Arial, Sans-serif">

</text>
<text x="0" y="148" fill="#000000" font-size="5px" font-weight="bold" font-family="'Helvetica Neue', Helvetica, Arial-Unicode, Arial, Sans-serif">
</text></svg>